<svg width="127" height="53" viewBox="0 0 127 53" fill="none" xmlns="http://www.w3.org/2000/svg">
<path d="M26 26V52C11.6411 52 0 40.3589 0 26H26Z" fill="#419275"/>
<path d="M26 0V26H0C0 11.6411 11.6411 0 26 0Z" fill="#32533D"/>
<path d="M26 26V52C40.3589 52 52 40.3589 52 26H26Z" fill="#F2FAF5"/>
<path d="M45.5 19.5H32.5V6.5" fill="#419275"/>
<path d="M71.264 19.326L70.956 21.79H66.028L64.532 34H61.672L63.476 19.326H71.264ZM81.198 19.326L80.89 21.79H75.61L75.214 25.068H80.274L79.966 27.532H74.906L74.422 31.536H79.702L79.394 34H74.114H71.254L73.058 19.326H81.198ZM91.1441 18.996C93.2268 18.996 94.9208 19.6267 96.2261 20.888C97.5168 22.12 98.1621 23.748 98.1621 25.772C98.1621 26.9453 97.9494 28.0747 97.5241 29.16C97.1134 30.2453 96.5414 31.1693 95.8081 31.932C94.2681 33.5307 92.2294 34.33 89.6921 34.33C87.4334 34.33 85.6368 33.648 84.3021 32.284C83.0114 30.964 82.3661 29.3433 82.3661 27.422C82.3661 26.234 82.5934 25.1047 83.0481 24.034C83.5028 22.9487 84.1188 22.0393 84.8961 21.306C85.6734 20.5727 86.6048 20.008 87.6901 19.612C88.7901 19.2013 89.9414 18.996 91.1441 18.996ZM89.8461 31.734C91.2541 31.734 92.4568 31.25 93.4541 30.282C93.9821 29.754 94.4001 29.116 94.7081 28.368C95.0308 27.6053 95.1921 26.8133 95.1921 25.992C95.1921 24.7307 94.8034 23.6967 94.0261 22.89C93.2048 22.0393 92.0901 21.614 90.6821 21.614C89.2448 21.614 88.0274 22.0833 87.0301 23.022C85.9008 24.078 85.3361 25.4713 85.3361 27.202C85.3361 28.522 85.7248 29.5853 86.5021 30.392C87.3528 31.2867 88.4674 31.734 89.8461 31.734ZM63.476 37.326H75.092L73.288 52H70.428L71.924 39.79H66.028L64.532 52H61.672L63.476 37.326ZM79.8371 37.326H89.8251L88.0211 52H85.1611L86.6571 39.79H82.3891L81.5971 46.302C81.3478 48.5313 80.7978 50.0567 79.9471 50.878C79.0965 51.714 77.9378 52.132 76.4711 52.132C76.0751 52.132 75.6425 52.088 75.1731 52L75.4811 49.536C75.7011 49.624 75.9651 49.668 76.2731 49.668C76.9478 49.668 77.4685 49.47 77.8351 49.074C77.9231 48.986 78.0038 48.8833 78.0771 48.766C78.1505 48.6487 78.2091 48.5387 78.2531 48.436C78.3118 48.3333 78.3631 48.194 78.4071 48.018C78.4658 47.842 78.5098 47.7027 78.5391 47.6C78.5685 47.4973 78.5978 47.3433 78.6271 47.138C78.6565 46.9327 78.6785 46.786 78.6931 46.698C78.7078 46.61 78.7225 46.4487 78.7371 46.214C78.7665 45.9647 78.7885 45.8033 78.8031 45.73L79.8371 37.326ZM95.3234 43.002H97.2154C97.6701 41.1687 98.6014 39.7093 100.009 38.624C101.403 37.5387 103.104 36.996 105.113 36.996C107.255 36.996 108.971 37.656 110.261 38.976C111.449 40.208 112.043 41.7773 112.043 43.684C112.043 44.9013 111.845 46.0673 111.449 47.182C111.053 48.2967 110.467 49.2573 109.689 50.064C108.237 51.5747 106.338 52.33 103.991 52.33C101.718 52.33 99.9434 51.648 98.6674 50.284C97.4501 48.9787 96.8707 47.3727 96.9294 45.466H95.0154L94.2234 52H91.3634L93.1674 37.326H96.0274L95.3234 43.002ZM103.947 49.734C105.311 49.734 106.463 49.2867 107.401 48.392C108.516 47.3213 109.073 45.8547 109.073 43.992C109.073 42.6133 108.655 41.5133 107.819 40.692C107.057 39.9733 106.103 39.614 104.959 39.614C103.507 39.614 102.312 40.0833 101.373 41.022C100.259 42.1367 99.7014 43.53 99.7014 45.202C99.7014 46.6393 100.149 47.776 101.043 48.612C101.821 49.36 102.789 49.734 103.947 49.734ZM124.97 48.128L124.552 51.472C123.452 52.044 122.242 52.33 120.922 52.33C118.824 52.33 117.16 51.7287 115.928 50.526C114.622 49.2793 113.97 47.6367 113.97 45.598C113.97 44.278 114.182 43.068 114.608 41.968C115.048 40.868 115.62 39.9587 116.324 39.24C117.82 37.744 119.829 36.996 122.352 36.996C123.76 36.996 125.05 37.2967 126.224 37.898L125.828 41.198C124.904 40.1273 123.657 39.592 122.088 39.592C120.592 39.592 119.367 40.098 118.414 41.11C117.431 42.166 116.94 43.5227 116.94 45.18C116.94 46.5 117.35 47.6 118.172 48.48C118.978 49.3307 120.034 49.756 121.34 49.756C122.953 49.756 124.163 49.2133 124.97 48.128Z" fill="#F2FAF5"/>
</svg>
