<svg width="68" height="68" viewBox="0 0 68 68" fill="none" xmlns="http://www.w3.org/2000/svg">
<path d="M33.9984 4.24902C27.8012 4.2564 21.86 6.72149 17.4779 11.1036C13.0959 15.4856 10.6308 21.4269 10.6234 27.624C10.6234 47.6248 31.8734 62.7322 32.7781 63.3652C33.1359 63.6151 33.5619 63.7492 33.9984 63.7492C34.4349 63.7492 34.8608 63.6151 35.2187 63.3652C36.1234 62.7322 57.3734 47.6248 57.3734 27.624C57.366 21.4269 54.9009 15.4856 50.5189 11.1036C46.1368 6.72149 40.1956 4.2564 33.9984 4.24902ZM34 19.1248C35.6811 19.1248 37.3245 19.6233 38.7223 20.5573C40.1201 21.4913 41.2096 22.8188 41.853 24.372C42.4963 25.9252 42.6646 27.6343 42.3367 29.2831C42.0087 30.9319 41.1991 32.4465 40.0104 33.6352C38.8216 34.824 37.3071 35.6335 35.6582 35.9615C34.0094 36.2895 32.3003 36.1211 30.7472 35.4778C29.194 34.8345 27.8665 33.745 26.9325 32.3472C25.9985 30.9494 25.5 29.306 25.5 27.6248C25.5 25.3705 26.3955 23.2085 27.9896 21.6144C29.5836 20.0204 31.7456 19.1248 34 19.1248Z" fill="#F2FAF5"/>
</svg>
