<svg width="16" height="16" viewBox="0 0 16 16" fill="none" xmlns="http://www.w3.org/2000/svg">
<path d="M6.76436 9.17333C7.69213 10.1145 8.81471 10.8412 10.0533 11.3022L11.7288 9.96889C11.7785 9.93468 11.8374 9.91636 11.8977 9.91636C11.958 9.91636 12.0169 9.93468 12.0666 9.96889L15.1777 11.9733C15.2958 12.0443 15.3958 12.1418 15.4697 12.2581C15.5437 12.3744 15.5896 12.5063 15.6038 12.6434C15.6181 12.7805 15.6002 12.919 15.5517 13.048C15.5032 13.177 15.4254 13.2929 15.3244 13.3867L13.8666 14.8267C13.6578 15.0329 13.4012 15.1843 13.1197 15.2673C12.8382 15.3503 12.5405 15.3623 12.2533 15.3022C9.38757 14.7104 6.7462 13.3242 4.63103 11.3022C2.5628 9.26011 1.13159 6.66171 0.511027 3.82222C0.449723 3.5394 0.462518 3.24553 0.548172 2.9691C0.633826 2.69267 0.789434 2.44306 0.999916 2.24445L2.51103 0.786667C2.60454 0.690573 2.71858 0.616878 2.8446 0.571102C2.97063 0.525325 3.10538 0.508653 3.23877 0.522333C3.37215 0.536014 3.50071 0.579692 3.61482 0.650098C3.72893 0.720504 3.82564 0.815814 3.89769 0.928889L5.96881 4C6.00453 4.04823 6.02381 4.10665 6.02381 4.16667C6.02381 4.22668 6.00453 4.28511 5.96881 4.33333L4.60436 5.97333C5.07795 7.18709 5.8158 8.28019 6.76436 9.17333Z" fill="white"/>
</svg>
